<?xml version="1.0" encoding="UTF-8" standalone="no"?>
<!DOCTYPE svg PUBLIC "-//W3C//DTD SVG 1.1//EN" "http://www.w3.org/Graphics/SVG/1.1/DTD/svg11.dtd">
<svg width="100%" height="100%" viewBox="0 0 977 869" version="1.1" xmlns="http://www.w3.org/2000/svg" xmlns:xlink="http://www.w3.org/1999/xlink" xml:space="preserve" style="fill-rule:evenodd;clip-rule:evenodd;stroke-linejoin:round;stroke-miterlimit:1.41421;">
    <g transform="matrix(1,0,0,1,-185.303,0.496346)">
        <g transform="matrix(1.1702,-0.675583,0.677267,1.17311,-539.044,-62.9911)">
            <path d="M381.31,599.959L545.833,694.946L545.833,884.921L381.31,979.908L216.787,884.921L216.787,694.946L381.31,599.959Z" style="fill:rgb(255,130,1);"/>
        </g>
        <g transform="matrix(1.1702,-0.675583,0.677267,1.17311,-76.0528,-325.429)">
            <path d="M381.31,599.959L545.833,694.946L545.833,884.921L381.31,979.908L216.787,884.921L216.787,694.946L381.31,599.959Z" style="fill:rgb(255,130,1);"/>
        </g>
        <g transform="matrix(0.60175,-0.347406,0.326083,0.564817,352.541,443.697)">
            <path d="M381.31,599.959L545.833,694.946L545.833,884.921L381.31,979.908L216.787,884.921L216.787,694.946L381.31,599.959Z" style="fill:rgb(255,130,1);"/>
        </g>
        <g transform="matrix(0.794257,-0.458545,0.460592,0.797803,-181.246,-304.298)">
            <path d="M381.31,599.959L545.833,694.946L545.833,884.921L381.31,979.908L216.787,884.921L216.787,694.946L381.31,599.959Z" style="fill:rgb(255,130,1);"/>
        </g>
    </g>
</svg>
