<?xml version="1.0" encoding="UTF-8" standalone="no"?><!DOCTYPE svg PUBLIC "-//W3C//DTD SVG 1.1//EN" "http://www.w3.org/Graphics/SVG/1.1/DTD/svg11.dtd"><svg width="100%" height="100%" viewBox="0 0 164 164" version="1.1" xmlns="http://www.w3.org/2000/svg" xmlns:xlink="http://www.w3.org/1999/xlink" xml:space="preserve" xmlns:serif="http://www.serif.com/" style="fill-rule:evenodd;clip-rule:evenodd;stroke-linejoin:round;stroke-miterlimit:2;"><rect x="0" y="0" width="164" height="164" style="fill:#fff;"/><path d="M64.15,17.268l15.335,23.77l-12.953,23.732l-28.287,-0.038l-15.335,-23.77l12.953,-23.732l28.287,0.038Z" style="fill:#ff8200;"/><path d="M113.075,117.877l10.509,16.291l-8.877,16.265l-19.387,-0.026l-10.509,-16.291l8.877,-16.265l19.387,0.026Z" style="fill:#ff8200;"/><path d="M61.42,77.604l21.31,32.848l-17.845,32.896l-39.155,0.048l-21.311,-32.848l17.845,-32.896l39.156,-0.048Z" style="fill:#ff8200;"/><path d="M135.641,36.449l22.819,35.888l-19.708,35.551l-42.527,-0.337l-22.819,-35.888l19.708,-35.551l42.527,0.337Z" style="fill:#ff8200;"/></svg>